 <svg version="1.0" xmlns="http://www.w3.org/2000/svg" width="700.000000pt" height="700.000000pt" viewBox="0 0 700.000000 700.000000" preserveAspectRatio="xMidYMid meet">
<metadata>
Created by potrace 1.12, written by Peter Selinger 2001-2015
</metadata>
<g transform="translate(0.000000,700.000000) scale(0.100000,-0.100000)" fill="#000000" stroke="none">
<path d="M0 6901 c0 -7 11 -22 24 -32 22 -17 107 -119 159 -189 18 -25 18 -24
1 5 -10 17 -24 41 -31 55 -19 36 -152 177 -153 161z"></path>
<path d="M3637 6863 c-2 -5 -12 -37 -22 -73 -24 -81 -95 -175 -95 -125 0 8 -4
15 -10 15 -5 0 -9 -16 -8 -35 1 -37 -20 -72 -29 -47 -6 17 -23 15 -23 -3 0
-22 -37 -55 -60 -55 -14 0 -20 -7 -20 -21 0 -11 -11 -40 -25 -63 -19 -32 -23
-51 -19 -74 6 -29 4 -31 -27 -34 l-34 -3 -3 -67 c-2 -45 -8 -70 -18 -79 -13
-11 -18 -10 -26 4 -13 24 -28 12 -28 -23 0 -30 30 -57 50 -45 6 3 10 3 10 -1
0 -9 -41 -44 -51 -44 -5 0 -6 -7 -2 -16 3 -9 -3 -21 -16 -30 -11 -8 -21 -22
-21 -30 0 -16 -16 -19 -25 -4 -12 19 -25 -1 -25 -36 0 -19 7 -46 16 -60 15
-23 15 -26 0 -43 -13 -14 -16 -28 -11 -55 6 -31 5 -36 -11 -36 -16 0 -19 -8
-21 -52 -2 -84 -3 -88 -29 -104 -30 -20 -33 -71 -5 -105 17 -21 20 -22 26 -7
4 9 21 26 38 36 40 23 87 110 87 158 0 42 27 81 53 76 14 -3 17 4 17 32 0 20
5 36 10 36 14 0 13 -43 -2 -75 -20 -44 3 -42 45 6 23 25 50 48 60 52 27 10 20
34 -18 57 -20 12 -34 27 -32 34 4 13 75 24 160 25 55 1 62 -2 104 -39 25 -22
51 -40 56 -40 18 0 67 -52 67 -71 0 -9 7 -20 16 -23 13 -5 15 -15 10 -54 -8
-50 -32 -124 -52 -157 -17 -28 -21 -102 -6 -117 19 -19 14 -49 -9 -55 -12 -3
-27 -22 -36 -45 -9 -22 -24 -43 -34 -46 -10 -4 -52 -5 -93 -2 -67 4 -78 8
-108 36 -36 35 -87 47 -130 32 -24 -9 -28 -15 -28 -48 0 -42 -8 -70 -20 -70
-4 0 -15 21 -24 48 -51 139 -75 192 -89 192 -5 0 -29 -18 -53 -40 -24 -22 -49
-40 -56 -40 -17 0 -78 -74 -78 -93 0 -8 11 -22 25 -31 22 -15 25 -23 24 -70
-2 -41 4 -62 25 -98 28 -48 37 -53 126 -64 82 -10 164 -32 175 -48 6 -8 40
-20 75 -27 36 -7 75 -19 87 -26 12 -8 27 -12 32 -8 6 3 24 -1 40 -10 17 -8 43
-15 58 -15 15 0 34 -4 42 -9 11 -7 10 -11 -7 -20 -24 -13 -104 -15 -117 -3
-20 17 -94 32 -158 32 -36 0 -78 5 -94 11 -15 7 -58 13 -96 15 -37 2 -80 10
-95 18 -32 17 -140 38 -153 30 -13 -8 -11 -217 2 -270 9 -34 19 -49 41 -60 27
-14 29 -19 22 -47 -12 -49 -9 -94 7 -113 8 -10 46 -43 86 -74 40 -32 70 -60
67 -62 -5 -6 -122 39 -141 54 -29 24 -10 -5 22 -34 39 -33 75 -102 75 -141 0
-34 43 -77 78 -77 15 0 34 -6 41 -12 10 -11 14 -10 22 5 6 9 16 17 24 17 10 0
12 9 8 35 -4 26 -2 36 11 41 23 9 20 25 -9 56 l-25 27 38 -6 c74 -12 82 -18
80 -65 -1 -24 -1 -79 -1 -123 1 -223 -1 -249 -20 -253 -10 -2 -29 3 -42 12
-13 9 -31 16 -39 16 -17 0 -31 34 -21 51 5 7 14 4 26 -7 19 -17 22 -17 47 -2
23 14 26 22 24 55 -7 75 -44 80 -72 8 -15 -39 -22 -42 -40 -20 -15 18 -6 45
16 45 29 0 8 24 -42 48 -27 13 -56 28 -64 33 -36 21 -84 39 -106 39 -12 0 -26
5 -29 10 -13 20 -24 9 -27 -27 l-3 -38 -18 40 c-27 63 -32 70 -61 73 -14 2
-33 14 -42 27 -8 12 -27 28 -42 34 -28 12 -28 12 -209 -33 -57 -14 -63 -10
-63 39 0 17 -35 60 -116 145 -110 114 -117 123 -121 168 -7 79 -12 92 -40 103
-20 7 -30 6 -45 -8 -10 -9 -16 -23 -13 -31 5 -13 -20 -72 -31 -72 -3 0 -12 16
-20 35 -8 19 -19 35 -24 35 -22 0 -159 -104 -240 -181 -47 -45 -118 -106 -157
-135 -40 -30 -73 -60 -73 -67 0 -7 22 -35 49 -61 l50 -49 47 39 c89 75 129
104 145 104 18 0 133 -206 125 -226 -6 -16 -122 -7 -153 12 -31 19 -49 18 -84
-8 -27 -20 -32 -21 -65 -9 -29 10 -41 11 -59 1 -17 -9 -35 -9 -71 -2 -57 12
-76 3 -56 -28 6 -11 12 -22 12 -25 0 -9 -35 -6 -69 6 -31 11 -31 12 -15 30 23
26 10 35 -20 15 -16 -10 -46 -16 -81 -16 -30 0 -55 -4 -55 -10 0 -5 18 -10 41
-10 28 0 39 -4 37 -12 -6 -18 -74 -10 -120 13 -20 10 -44 19 -53 19 -8 0 -23
4 -33 9 -9 5 -44 17 -77 26 -33 9 -71 27 -85 39 -14 12 -58 30 -100 41 -41 10
-81 21 -89 25 -7 4 -32 4 -54 -1 -40 -7 -88 4 -140 32 -14 8 -24 6 -38 -7 -21
-19 -65 -14 -119 12 -31 16 -32 15 -61 -12 -35 -34 -36 -44 -4 -74 14 -13 25
-26 25 -30 0 -4 34 -58 75 -121 97 -147 98 -149 115 -183 8 -16 52 -69 97
-117 81 -87 81 -87 93 -163 7 -42 19 -81 26 -87 8 -6 14 -22 14 -34 0 -30 38
-59 103 -81 117 -37 144 -53 163 -95 16 -36 16 -46 5 -87 -7 -26 -15 -84 -18
-129 l-6 -83 58 -76 c37 -49 69 -81 91 -90 19 -8 34 -18 34 -22 0 -4 -23 -45
-51 -91 -27 -46 -48 -90 -45 -98 3 -8 -7 -33 -22 -56 -31 -47 -102 -190 -102
-207 0 -24 52 -90 91 -116 23 -16 44 -35 47 -41 7 -23 -27 -25 -54 -4 -14 11
-30 18 -35 15 -5 -3 -9 4 -9 14 0 23 -25 46 -40 37 -15 -9 -12 -26 7 -47 16
-18 16 -21 -1 -49 -25 -43 -10 -55 77 -62 39 -3 80 -8 90 -12 24 -10 23 -79
-3 -112 -17 -22 -18 -28 -5 -52 7 -15 21 -33 29 -40 26 -22 18 -49 -29 -98
-48 -51 -71 -94 -62 -118 4 -8 13 -12 20 -9 9 3 17 -3 20 -18 6 -22 7 -22 41
11 19 19 40 47 47 62 8 21 18 29 35 29 35 0 30 -19 -26 -107 -27 -43 -62 -103
-78 -133 -41 -82 -62 -110 -81 -110 -21 0 -52 -34 -70 -74 -33 -79 -111 -138
-103 -79 2 14 -5 27 -17 35 -26 16 -26 21 0 74 25 52 29 55 104 83 l60 22 1
147 c1 81 3 161 5 177 4 27 1 30 -24 33 -22 3 -36 -5 -65 -39 l-37 -41 -53 18
c-28 10 -52 22 -52 27 0 4 16 15 35 23 39 16 68 54 59 77 -8 22 -26 27 -68 17
-33 -7 -36 -6 -36 15 0 15 -7 25 -21 28 -19 5 -21 11 -16 44 10 59 44 83 121
83 43 0 67 5 76 15 18 22 3 35 -40 35 -32 0 -42 5 -61 33 -43 62 -82 97 -109
97 -25 0 -60 26 -60 45 0 5 -11 20 -24 34 -29 32 -124 172 -151 224 -33 62
-60 91 -78 84 -18 -7 -87 -147 -87 -177 0 -10 -4 -22 -10 -25 -5 -3 -10 -37
-10 -74 0 -40 -7 -84 -16 -107 -23 -54 -23 -399 0 -463 9 -24 16 -60 16 -80 0
-20 5 -42 11 -48 9 -9 8 -21 -5 -47 -9 -19 -21 -38 -26 -41 -16 -10 -12 -136
5 -169 19 -37 19 -147 0 -212 -12 -43 -13 -56 -1 -95 8 -26 19 -55 25 -65 5
-11 22 -52 37 -93 24 -66 26 -82 21 -160 -8 -108 -35 -207 -87 -314 -11 -23
-20 -46 -20 -53 0 -7 -24 -37 -53 -68 -71 -76 -96 -76 -242 -1 -59 30 -113 55
-121 55 -11 0 -14 -31 -14 -175 l0 -175 330 0 c221 0 330 3 330 10 0 13 -70
44 -119 54 -94 18 -111 26 -111 52 0 14 11 46 25 72 14 26 25 56 25 66 0 11 4
33 9 50 28 91 60 208 72 261 10 48 21 68 52 98 31 30 38 43 33 63 -4 13 -11
24 -16 24 -17 0 -11 36 8 52 19 16 88 38 119 38 11 0 26 -7 33 -15 9 -11 22
-14 46 -9 33 6 34 6 34 -30 0 -48 22 -47 48 2 10 20 45 64 76 96 31 32 56 63
56 67 0 5 7 9 15 9 30 0 14 -129 -45 -378 -5 -23 -10 -55 -10 -70 0 -24 -15
-99 -40 -202 -4 -19 -14 -71 -20 -115 -15 -98 -20 -109 -62 -125 -79 -29 -107
-43 -112 -56 -4 -12 43 -14 288 -14 l293 0 10 23 c6 13 19 59 28 102 20 92 28
104 101 145 29 16 57 38 63 47 5 10 19 61 31 113 12 52 28 112 36 133 8 20 14
47 14 58 0 20 71 160 97 191 8 9 27 40 41 69 15 28 38 59 50 67 21 14 22 13
22 -17 0 -65 34 -99 167 -167 114 -58 121 -73 103 -197 -16 -113 -63 -210
-130 -270 -54 -49 -74 -56 -104 -34 -15 11 -17 26 -13 122 3 61 8 127 12 148
4 22 3 37 -3 37 -5 0 -49 -58 -97 -130 -48 -71 -91 -132 -95 -135 -8 -5 -64
-88 -114 -168 -15 -25 -46 -110 -46 -129 0 -5 728 -8 1618 -8 l1618 0 -13 77
c-29 177 -30 160 8 180 47 25 99 78 99 100 0 20 29 53 47 53 15 0 48 41 68 84
15 33 17 55 11 133 -3 51 -11 105 -17 120 -6 16 -15 64 -19 108 -5 44 -14 107
-20 139 -7 40 -8 62 -1 69 15 15 48 -18 62 -62 6 -20 28 -67 47 -106 37 -73
43 -98 66 -257 17 -118 29 -143 86 -186 42 -32 46 -39 61 -111 8 -42 25 -95
37 -118 l22 -43 -34 -67 c-18 -38 -37 -78 -40 -90 l-7 -23 435 0 436 0 0 74
c0 69 -2 75 -26 91 -26 17 -61 17 -109 0 -11 -4 21 31 70 77 l90 85 -3 68 c-1
37 -9 87 -17 112 -8 24 -15 57 -15 74 0 17 -5 40 -12 52 -6 12 -15 48 -19 82
-4 33 -15 100 -23 150 -20 121 -14 162 46 283 50 101 52 106 64 240 7 75 18
155 24 177 8 27 10 70 6 130 -6 77 -4 99 14 150 42 121 55 296 37 505 -11 117
-51 253 -75 248 -9 -2 -44 -48 -79 -103 -75 -121 -138 -195 -163 -195 -10 0
-46 -25 -78 -55 -63 -58 -99 -69 -137 -41 -18 13 -18 15 -2 39 13 20 15 32 7
51 -6 17 -6 36 2 56 5 17 8 44 4 61 -8 42 -56 161 -72 180 -11 13 -11 17 1 30
12 12 8 26 -30 104 -59 120 -59 125 10 125 46 0 56 3 66 23 7 12 30 42 52 67
l39 45 5 150 c5 156 13 185 52 185 22 0 153 30 170 39 24 12 91 141 91 174 0
26 12 43 63 92 67 64 145 154 241 279 33 43 73 91 90 107 30 29 30 29 11 48
-18 17 -28 18 -85 11 -97 -13 -173 -30 -195 -44 -11 -7 -58 -19 -105 -25 -47
-7 -97 -19 -112 -27 -14 -8 -52 -14 -83 -14 -52 0 -61 3 -103 41 -42 36 -51
40 -82 34 -19 -3 -66 -10 -105 -15 -38 -4 -78 -11 -88 -15 -12 -5 -26 3 -50
29 -37 39 -52 43 -111 22 -34 -12 -46 -12 -85 2 -25 8 -58 21 -73 28 -40 21
-67 17 -78 -11 -11 -29 -67 -55 -120 -55 -33 0 -41 -5 -64 -40 -14 -22 -28
-40 -31 -40 -27 0 -123 34 -132 47 -7 9 -13 44 -13 78 0 71 -16 100 -63 114
-18 5 -71 26 -119 45 -101 41 -144 45 -182 15 -15 -12 -31 -18 -35 -13 -19 23
-32 119 -29 234 1 93 -1 131 -12 146 -11 19 -11 29 3 75 8 30 21 77 28 106 12
51 12 52 -19 88 -18 19 -32 43 -32 52 0 26 40 83 59 83 10 0 25 8 34 18 14 16
17 44 17 181 0 115 -4 177 -15 210 -7 25 -19 66 -26 91 -14 54 -25 80 -63 145
-16 28 -38 67 -48 87 -19 39 -108 103 -203 147 -27 13 -58 27 -67 32 -10 5
-23 9 -30 9 -7 0 -26 7 -43 16 -18 9 -43 14 -62 11 -33 -6 -46 4 -68 46 -10
20 -25 31 -57 41 -14 4 -15 16 -11 88 3 46 9 99 14 118 5 19 9 89 9 155 0 66
4 137 9 158 5 21 11 93 12 159 l3 120 -39 14 c-43 15 -102 18 -108 7z m-190
-723 c3 -34 -14 -73 -65 -153 -13 -20 -28 -34 -33 -31 -24 14 5 126 35 137 8
3 18 22 22 42 8 42 38 46 41 5z m253 -118 c0 -13 -12 -22 -22 -16 -10 6 -1 24
13 24 5 0 9 -4 9 -8z m234 -134 c20 -23 36 -50 36 -60 0 -10 9 -32 21 -47 22
-29 47 -114 56 -186 3 -22 9 -45 14 -51 5 -5 13 -48 18 -95 6 -46 13 -94 17
-106 7 -26 4 -27 -31 -11 -19 8 -25 19 -25 42 0 17 -7 49 -15 71 -8 22 -14 66
-15 97 0 31 -4 60 -10 63 -5 3 -10 23 -10 44 0 20 -7 46 -15 57 -8 10 -15 27
-15 36 0 9 -10 34 -22 55 -13 21 -33 59 -45 86 -29 61 -9 64 41 5z m156 -248
c0 -5 -5 -10 -11 -10 -5 0 -7 5 -4 10 3 6 8 10 11 10 2 0 4 -4 4 -10z m50
-399 c11 -21 3 -54 -11 -45 -9 5 -13 64 -4 64 2 0 9 -9 15 -19z m-353 -274
c12 -11 28 -36 34 -56 6 -20 18 -44 26 -53 15 -17 14 -24 -7 -60 -5 -10 -13
-25 -18 -34 -7 -15 -72 -44 -99 -44 -6 0 -15 9 -18 20 -9 28 30 59 73 60 17 0
32 5 32 10 0 6 -9 10 -20 10 -10 0 -34 6 -52 14 -18 8 -45 17 -60 21 -35 7
-36 22 -2 37 20 9 30 9 45 0 10 -7 27 -12 37 -12 10 0 23 -5 30 -12 23 -23 12
9 -12 35 -38 41 -56 70 -56 90 0 15 3 16 23 6 12 -6 32 -21 44 -32z m-3237
-777 c19 -16 41 -29 48 -30 7 0 35 -25 63 -55 44 -46 58 -55 98 -61 54 -8 79
-19 102 -47 13 -17 29 -21 88 -23 66 -1 71 0 66 17 -6 18 -1 19 62 15 37 -2
70 -4 72 -5 2 -1 -4 -10 -14 -21 -22 -25 -9 -44 41 -60 19 -6 34 -16 34 -21 0
-21 -34 -21 -84 0 -64 26 -78 26 -102 0 -15 -17 -16 -23 -6 -40 11 -17 9 -19
-17 -19 -20 0 -41 11 -66 34 -25 24 -49 36 -82 41 -55 8 -168 62 -224 105 -43
35 -139 162 -139 185 0 23 22 18 60 -15z m2958 14 c-10 -9 -78 -12 -78 -3 0 5
19 9 42 9 23 0 39 -3 36 -6z m-888 -114 c0 -5 -4 -12 -10 -15 -27 -17 15 -117
57 -137 16 -8 28 -21 28 -32 0 -11 6 -21 13 -23 6 -3 12 2 12 11 0 11 9 16 29
16 29 0 98 21 138 42 20 10 27 7 57 -25 19 -21 39 -37 45 -37 25 0 6 -29 -65
-97 -91 -87 -93 -104 -16 -115 74 -11 112 -32 112 -63 0 -20 -9 -29 -47 -46
-27 -12 -55 -26 -63 -30 -8 -5 -24 -13 -35 -18 -11 -5 -29 -18 -39 -30 -11
-11 -24 -21 -30 -21 -5 0 -56 -48 -113 -107 l-102 -108 -1 47 c0 33 7 57 24
82 33 49 41 130 17 170 -10 17 -28 69 -40 116 -12 47 -31 98 -42 113 -12 17
-27 63 -35 108 -7 44 -18 88 -24 99 -23 43 2 89 62 114 32 14 68 7 68 -14z
m-1052 -122 c-6 -18 -28 -21 -28 -4 0 9 7 16 16 16 9 0 14 -5 12 -12z m330 -4
c15 -4 16 -36 0 -52 -18 -18 -57 -14 -95 9 l-34 21 -6 -21 c-3 -11 -12 -21
-19 -21 -23 0 -16 17 18 49 29 27 37 29 78 25 25 -3 51 -7 58 -10z m1262 -20
c14 -16 16 -63 11 -286 -2 -80 0 -93 27 -145 17 -32 42 -92 58 -133 15 -41 37
-83 48 -92 12 -10 27 -23 34 -28 26 -22 12 -31 -40 -24 -61 8 -89 20 -87 37 4
30 -2 57 -12 57 -6 0 -10 -10 -9 -22 5 -61 -15 -80 -38 -35 -7 12 -23 40 -37
62 -30 50 -31 89 -4 150 18 41 20 59 15 124 -10 110 -32 241 -47 277 -11 28
-10 35 10 63 24 33 41 32 71 -5z m-1769 -19 c9 -9 45 -24 80 -33 35 -10 64
-22 64 -27 0 -18 -146 -18 -192 0 -55 21 -62 33 -32 56 29 23 57 24 80 4z
m265 -89 c-4 -16 1 -29 15 -42 17 -15 25 -16 49 -7 17 6 32 8 35 4 7 -13 -68
-79 -110 -97 -22 -9 -58 -29 -80 -44 -66 -46 -195 -82 -166 -46 9 10 9 20 0
40 -20 43 4 73 94 117 43 21 93 52 110 69 38 37 62 40 53 6z m2360 -73 c14
-55 -44 -241 -129 -413 -41 -84 -43 -85 -82 -88 l-40 -3 27 25 c38 36 81 125
117 246 18 58 37 119 43 135 6 17 13 46 15 65 2 19 6 41 8 48 8 22 34 13 41
-15z m-2726 -153 c0 -23 -66 -71 -86 -63 -25 9 -15 31 29 57 51 31 57 31 57 6z
m1089 -55 c-12 -29 -13 -29 -17 -6 -2 12 -1 35 3 50 7 25 8 25 17 6 6 -14 5
-31 -3 -50z m642 -430 c12 -20 30 -40 40 -46 10 -5 28 -28 40 -50 17 -34 18
-46 10 -72 -25 -69 -63 -82 -144 -48 -56 24 -67 44 -60 102 6 44 64 149 84
149 5 0 19 -16 30 -35z m-203 -32 c5 -17 -26 -29 -40 -15 -6 6 -7 15 -3 22 9
14 37 9 43 -7z m-62 -104 c17 -19 17 -23 3 -47 -18 -34 -26 -34 -69 0 -28 22
-32 29 -21 42 7 8 22 17 34 19 12 2 25 5 28 6 3 0 14 -8 25 -20z m701 -119
c38 -23 35 -47 -6 -56 -102 -21 -163 -41 -206 -67 -111 -66 -144 -91 -180
-138 -20 -27 -41 -49 -46 -49 -22 0 -3 57 32 95 10 11 29 39 41 62 27 48 111
123 138 123 24 0 70 21 70 31 0 23 119 23 157 -1z m133 -16 c0 -7 -5 -16 -11
-20 -17 -10 -32 12 -24 36 5 17 10 19 21 9 8 -6 14 -17 14 -25z m-2930 -418
l24 -45 -24 -26 c-13 -14 -27 -25 -32 -25 -4 0 -19 17 -32 38 -13 22 -32 46
-41 56 -16 16 -16 19 11 57 l28 41 21 -26 c11 -14 31 -45 45 -70z m759 5 c18
-14 20 -19 9 -23 -18 -7 -78 17 -78 32 0 16 43 11 69 -9z m-31 -137 c74 -40
115 -99 82 -119 -16 -10 -141 26 -182 51 -48 31 -54 42 -26 53 13 5 30 16 37
25 18 22 34 20 89 -10z m1900 -1 c-4 -22 -22 -20 -26 1 -2 10 3 16 13 16 10 0
15 -7 13 -17z m-2555 -51 c20 -20 39 -51 43 -68 5 -29 3 -33 -28 -44 -77 -31
-79 -31 -110 0 -32 32 -30 46 8 60 20 8 23 14 18 35 -8 30 1 55 19 55 7 0 30
-17 50 -38z m1423 -206 c3 -8 19 -19 36 -25 29 -10 30 -12 25 -58 -3 -27 -9
-63 -12 -80 -7 -29 -4 -34 21 -44 16 -6 58 -14 94 -17 l64 -7 8 -45 c8 -45 -5
-281 -17 -300 -11 -18 -25 -10 -52 33 -45 70 -54 79 -70 65 -10 -8 -17 -8 -25
0 -7 7 -23 12 -36 12 -13 0 -31 4 -41 9 -11 6 -37 5 -72 -2 -53 -12 -54 -13
-63 -57 -8 -43 -10 -159 -4 -244 3 -37 1 -40 -42 -63 -24 -13 -55 -33 -67 -45
-13 -12 -26 -18 -30 -14 -5 4 -11 51 -16 104 -17 222 -20 236 -47 242 -22 6
-25 11 -23 44 3 38 57 191 92 256 10 19 30 41 45 48 14 7 33 27 42 45 23 45
44 67 65 67 10 0 32 20 49 45 31 46 65 59 76 31z m2819 -303 c52 -56 69 -93
42 -93 -7 0 -29 16 -48 36 -18 20 -46 42 -61 50 -37 19 -38 64 -1 64 7 0 38
-26 68 -57z m-149 -106 c17 -26 53 -69 79 -94 l47 -47 -7 -76 c-5 -41 -9 -124
-9 -184 -1 -72 -5 -111 -12 -113 -14 -5 -18 6 -32 87 -6 36 -18 104 -27 152
-8 48 -15 100 -15 116 0 23 -9 38 -39 61 -30 24 -37 36 -34 55 3 14 -2 35 -11
47 -12 17 -13 26 -4 36 16 20 30 12 64 -40z m-2754 -168 c9 -6 8 -11 -1 -22
-9 -12 -8 -27 9 -73 23 -67 14 -92 -21 -57 -25 25 -35 90 -24 160 7 44 8 46
17 23 5 -13 14 -28 20 -31z m108 25 c0 -3 -5 -14 -11 -25 -8 -15 -7 -26 4 -42
15 -23 44 -252 35 -278 -6 -17 -50 62 -59 106 -8 37 -26 87 -50 143 -11 23
-19 45 -19 47 0 3 17 16 38 29 35 24 62 32 62 20z m-1310 -106 c0 -13 -23 -5
-28 10 -2 7 2 10 12 6 9 -3 16 -11 16 -16z m58 -200 c-2 -13 -11 -24 -20 -26
-21 -4 -24 18 -6 36 19 19 30 14 26 -10z m988 -138 c27 -25 53 -40 69 -40 26
0 68 33 77 60 9 29 36 1 42 -45 9 -57 32 -81 91 -97 25 -7 45 -15 45 -19 0 -9
-58 -29 -85 -29 -29 0 -199 84 -248 123 -37 29 -59 64 -50 80 7 12 14 8 59
-33z m359 -47 c25 -38 33 -73 16 -73 -15 0 -60 81 -54 96 7 20 9 18 38 -23z"></path>
<path d="M2517 5963 c-3 -5 13 -24 35 -42 25 -21 37 -27 30 -15 -15 28 -59 67
-65 57z"></path>
<path d="M3524 5786 c-8 -22 3 -33 18 -18 9 9 9 15 0 24 -9 9 -13 7 -18 -6z"></path>
<path d="M3250 4970 c0 -5 7 -10 15 -10 8 0 15 5 15 10 0 6 -7 10 -15 10 -8 0
-15 -4 -15 -10z"></path>
<path d="M2937 4483 c-10 -10 -8 -63 2 -63 20 0 33 28 21 49 -12 23 -14 24
-23 14z"></path>
<path d="M2895 4280 c4 -6 11 -8 16 -5 14 9 11 15 -7 15 -8 0 -12 -5 -9 -10z"></path>
<path d="M760 4240 c0 -5 9 -10 20 -10 11 0 20 5 20 10 0 6 -9 10 -20 10 -11
0 -20 -4 -20 -10z"></path>
<path d="M1174 1981 c-38 -23 -84 -81 -84 -105 0 -25 27 -31 55 -12 13 9 32
16 42 16 20 0 73 48 73 67 0 14 -35 53 -47 53 -5 0 -22 -9 -39 -19z"></path>
<path d="M1240 1863 c-19 -5 -61 -63 -54 -75 8 -12 48 -10 67 5 18 14 27 69
12 72 -5 2 -17 1 -25 -2z"></path>
<path d="M1090 1790 c0 -5 5 -10 10 -10 6 0 10 5 10 10 0 6 -4 10 -10 10 -5 0
-10 -4 -10 -10z"></path>
<path d="M911 682 c-5 -10 -7 -23 -3 -29 9 -14 80 -39 88 -31 12 13 -8 49 -36
63 -36 19 -37 19 -49 -3z"></path>
<path d="M763 530 c-42 -20 -60 -37 -50 -47 6 -5 94 44 103 58 8 14 -6 10 -53
-11z"></path>
<path d="M790 476 c0 -9 7 -16 16 -16 17 0 14 22 -4 28 -7 2 -12 -3 -12 -12z"></path>
<path d="M721 441 c-14 -11 -19 -21 -13 -25 5 -3 20 2 33 12 29 24 11 36 -20
13z"></path>
</g>
</svg>